<svg xmlns="http://www.w3.org/2000/svg" xmlns:xlink="http://www.w3.org/1999/xlink" style="shape-rendering: auto;" preserveAspectRatio="xMidYMid" viewBox="0 0 1024 1024">
    <g transform="">
        <g transform="translate(1000.0443091639622,120.03304709274704) scale(100)" opacity="0.9">
            <path d="M6.023700000000001 0 C6.023700000000001 1.3041 5.941246148635091 2.7046117468739777 5.174715401120477 3.7596508092383467 S3.1016984719168805 5.325890074842748 1.861425669016371 5.728879137207117 S-0.7362925982199662 6.486231857543061 -1.976565401120476 6.083242795178692 S-4.106744921501757 4.595681086598541 -4.873275669016371 3.5406420242341716 S-6.396300000000001 1.304100000000001 -6.396300000000001 7.833208321386217e-16 S-5.639806416530986 -2.4856029618698012 -4.873275669016372 -3.5406420242341703 S-3.216838204020987 -5.680253732814322 -1.9765654011204774 -6.083242795178691 S0.6211528661158598 -6.131868199571486 1.8614256690163697 -5.728879137207118 S4.408184653605862 -4.814689871602716 5.174715401120476 -3.759650809238347 S6.023700000000001 -1.3041000000000016 6.023700000000001 -1.4753809848047825e-15" fill="#92d433" stroke-width="0">
                <animateTransform attributeName="transform" type="rotate" dur="25.666666666666664s" repeatCount="indefinite" values="0;72"></animateTransform>
            </path>
        </g>
        <g transform="translate(1141.2531709967548,92.93965651129645) scale(100)" opacity="0.9">
            <path d="M7.228440000000002 0 C7.228440000000002 1.56492 7.12949537836211 3.2455340962487735 6.209658481344573 4.511580971086016 S3.7220381663002575 6.391068089811299 2.2337108028196457 6.874654964648541 S-0.8835511178639595 7.783478229051673 -2.3718784813445715 7.299891354214431 S-4.928093905802109 5.5148173039182495 -5.847930802819646 4.248770429081007 S-7.675560000000002 1.564920000000001 -7.675560000000002 9.399849985663461e-16 S-6.767767699837183 -2.982723554243762 -5.847930802819646 -4.248770429081005 S-3.860205844825185 -6.816304479377187 -2.3718784813445732 -7.29989135421443 S0.745383439339032 -7.3582418394857845 2.233710802819644 -6.874654964648542 S5.289821584327035 -5.77762784592326 6.209658481344572 -4.511580971086017 S7.228440000000002 -1.5649200000000019 7.228440000000002 -1.7704571817657392e-15" fill="#3F8D28" stroke-width="0">
                <animateTransform attributeName="transform" type="rotate" dur="15.333333333333332s" repeatCount="indefinite" values="0;72"></animateTransform>
            </path>
        </g>
    </g>
</svg>
